<svg width="54" height="61" viewBox="0 0 54 61" fill="none" xmlns="http://www.w3.org/2000/svg">
<path d="M26.967 60.5L4.91442 54.5021L0 0.5H54L49.0805 54.4938L26.967 60.5Z" fill="#1ABCFE"/>
<path d="M44.8688 51.0557L49.0727 4.91541H27V55.909L44.8688 51.0557Z" fill="#1ABCFE"/>
<path d="M11.2661 24.9441L11.8719 31.5672H27V24.9441H11.2661Z" fill="white"/>
<path d="M10.0486 11.5387L10.6631 18.1618H27V11.5387H10.0486Z" fill="white"/>
<path d="M27 42.1451L26.9703 42.1528L19.4415 40.1611L18.9602 34.8789H12.174L13.121 45.2782L26.9689 49.0443L27 49.036V42.1451Z" fill="white"/>
<path d="M42.6908 24.944L43.9111 11.5387H26.9768V18.1618H36.5025L35.8874 24.944H26.9768V31.5672H35.3013L34.5164 40.1569L26.9766 42.1507V49.0411L40.8355 45.2782L40.9371 44.1592L42.5259 26.7225L42.6908 24.944Z" fill="white"/>
</svg>
