<svg width="54" height="81" viewBox="0 0 54 81" fill="none" xmlns="http://www.w3.org/2000/svg">
<path d="M13.5 81C20.952 81 27 74.952 27 67.5V54H13.5C6.048 54 0 60.048 0 67.5C0 74.952 6.048 81 13.5 81Z" fill="#0ACF83"/>
<path d="M0 40.5C0 33.048 6.048 27 13.5 27H27V54H13.5C6.048 54 0 47.952 0 40.5Z" fill="#A259FF"/>
<path d="M0 13.5C0 6.048 6.048 0 13.5 0H27V27H13.5C6.048 27 0 20.952 0 13.5Z" fill="#F24E1E"/>
<path d="M27 0H40.5C47.952 0 54 6.048 54 13.5C54 20.952 47.952 27 40.5 27H27V0Z" fill="#FF7262"/>
<path d="M54 40.5C54 47.952 47.952 54 40.5 54C33.048 54 27 47.952 27 40.5C27 33.048 33.048 27 40.5 27C47.952 27 54 33.048 54 40.5Z" fill="#1ABCFE"/>
</svg>
