<svg width="62" height="47" viewBox="0 0 62 47" fill="none" xmlns="http://www.w3.org/2000/svg">
<path d="M14.091 47V22.7939L6.66185 15.9261L0 12.115V42.7283C0 45.0919 1.89512 47 4.22738 47H14.091Z" fill="#4285F4"/>
<path d="M47.9089 47H57.7725C60.1118 47 61.9999 45.0848 61.9999 42.7283V12.1152L54.4543 16.4804L47.9089 22.7939V47Z" fill="#34A853"/>
<path d="M14.091 22.7939L13.0801 13.3359L14.091 4.28369L31 17.0986L47.9091 4.28369L49.0401 12.8472L47.9091 22.7939L31 35.6089L14.091 22.7939Z" fill="#EA4335"/>
<path d="M47.9089 4.28389V22.7941L61.9999 12.1152V6.41963C61.9999 1.13718 56.0324 -1.8742 51.8547 1.2938L47.9089 4.28389Z" fill="#FBBC04"/>
<path d="M0 12.1151L6.4807 17.0267L14.091 22.794V4.28376L10.1452 1.29367C5.96023 -1.87458 0 1.13704 0 6.41925V12.1148V12.1151Z" fill="#C5221F"/>
</svg>
