<svg width="54" height="61" viewBox="0 0 54 61" fill="none" xmlns="http://www.w3.org/2000/svg">
<path d="M54 0.5L49.0805 54.4938L26.967 60.5L4.91442 54.5021L0 0.5H54Z" fill="#9C39C6"/>
<path d="M27 55.909L44.8688 51.0557L49.0727 4.91541H27V55.909Z" fill="#9C39C6"/>
<path d="M17.4366 18.1618H27V11.5387H10.0486L10.2103 13.3155L11.8719 31.5672H27V24.944H18.0545L17.4366 18.1618Z" fill="white"/>
<path d="M18.9602 34.8789H12.174L13.121 45.2782L26.9689 49.0443L27 49.036V42.1451L26.9704 42.1528L19.4416 40.1611L18.9602 34.8789Z" fill="white"/>
<path d="M26.9767 31.5672H35.3012L34.5163 40.157L26.9765 42.1507V49.0412L40.8354 45.2782L40.937 44.1592L42.5258 26.7226L42.6907 24.9441H26.9767V31.5672Z" fill="white"/>
<path d="M26.9767 18.1457V18.1618H43.3058L43.4413 16.6732L43.7495 13.3155L43.911 11.5387H26.9767V18.1459V18.1457Z" fill="white"/>
</svg>
