<svg width="54" height="54" viewBox="0 0 54 54" fill="none" xmlns="http://www.w3.org/2000/svg">
<path d="M0 0H54V54H0V0Z" fill="#9C39C6"/>
<path d="M14.1986 45.1264L18.3309 42.6255C19.1282 44.039 19.8534 45.235 21.593 45.235C23.2605 45.235 24.312 44.5828 24.312 42.0456V24.7914H29.3865V42.1174C29.3865 47.3733 26.3056 49.7657 21.8105 49.7657C17.751 49.7657 15.3946 47.6633 14.1984 45.126" fill="white"/>
<path d="M32.1429 44.5824L36.2747 42.1902C37.3625 43.9665 38.7762 45.2714 41.2771 45.2714C43.3799 45.2714 44.7206 44.22 44.7206 42.7701C44.7206 41.0303 43.3432 40.4139 41.0233 39.3993L39.755 38.8551C36.0937 37.2969 33.6652 35.3394 33.6652 31.2071C33.6652 27.4009 36.565 24.501 41.0961 24.501C44.3222 24.501 46.6421 25.6249 48.3093 28.5609L44.358 31.0985C43.4879 29.5399 42.5459 28.9237 41.0959 28.9237C39.6096 28.9237 38.6672 29.8662 38.6672 31.0985C38.6672 32.6208 39.6096 33.2374 41.7844 34.1798L43.053 34.7234C47.3666 36.5723 49.7952 38.457 49.7952 42.6977C49.7952 47.2654 46.2067 49.7662 41.3857 49.7662C36.6736 49.7662 33.6287 47.5189 32.1427 44.5827" fill="white"/>
</svg>
